<svg width="24" height="24" viewBox="0 0 24 24" fill="none" xmlns="http://www.w3.org/2000/svg">
<path fill-rule="evenodd" clip-rule="evenodd" d="M21 13C21 17.9706 16.9706 22 12 22C7.02944 22 3 17.9706 3 13C3 8.02944 7.02944 4 12 4C16.9706 4 21 8.02944 21 13ZM7.18927 8.18934C7.77505 7.60356 8.7248 7.60356 9.31059 8.18934L11.9999 10.8787L14.6893 8.18934C15.2751 7.60356 16.2248 7.60356 16.8106 8.18934C17.3964 8.77513 17.3964 9.72488 16.8106 10.3107L14.1212 13L16.8106 15.6893C17.3964 16.2751 17.3964 17.2249 16.8106 17.8107C16.2248 18.3964 15.2751 18.3964 14.6893 17.8107L11.9999 15.1213L9.31059 17.8107C8.7248 18.3964 7.77505 18.3964 7.18927 17.8107C6.60348 17.2249 6.60348 16.2751 7.18927 15.6893L9.87861 13L7.18927 10.3107C6.60348 9.72488 6.60348 8.77513 7.18927 8.18934Z" fill="black"/>
</svg>
